<?xml version="1.0" ?><!DOCTYPE svg  PUBLIC '-//W3C//DTD SVG 1.1//EN'  'http://www.w3.org/Graphics/SVG/1.1/DTD/svg11.dtd'><svg enable-background="new 0 0 256 256" id="Layer_1" version="1.1" viewBox="0 0 256 256" xml:space="preserve" xmlns="http://www.w3.org/2000/svg" xmlns:xlink="http://www.w3.org/1999/xlink"><g><circle cx="128" cy="128" fill="#1F84AB" r="127"/><path d="M174.5,50.5c-0.2-0.1-0.4-0.3-0.7-0.4C174,50.3,174.2,50.5,174.5,50.5z" fill="#3CB5CB"/><path d="M237.1,193.1c-2.1,0.1-4.2,0.3-6.2,0.4c1.5-0.5,2.9-1,4.4-1.4c-9.7-1.7-19.3-3.3-29-5   c-11.9-2-23.8-4.1-35.6-6.4c-15.9-3.1-32-6.9-45.7-15.6c-13.7-8.6-24.8-23-25.4-39.2c-0.3-7,1.6-14.5,6.5-19.6   c6-6.3,15.6-8,24.2-6.5c8.6,1.6,16.3,6,23.6,10.6c21.2,13.2,40.9,28.6,60.3,44.3c5.7,2.2,11.3,4.3,17,6.5   c-4.1-4.7-9.1-8.6-14.8-11.3c1.6,0.2,3.2,0.4,4.8,0.6c-1.2-3.1-3.2-5.8-5.9-7.8c1.9,0.2,3.8,0.4,5.7,0.6c0.3-2.3-0.6-4.7-2.4-6.3   c1.5-0.1,2.9-0.3,4.4-0.4c-2-1.3,0.4-5.2,2.5-3.9c-5.2-6.9-2.4-17.6-7.8-24.2c-2-2.4-4.9-4.1-6-7c-1-2.7-0.2-5.8-1.4-8.3   c-1.3-2.9-4.6-4.1-7.3-5.8c-13.4-8.2-14.7-29.4-28.4-37c-0.3,0-0.5-0.1-0.7-0.4c0.2,0.1,0.4,0.2,0.7,0.4c0.7,0,1.6-0.8,1.5-1.7   c-0.2-1.2-1.4-1.8-2.5-2.3c-2.3-1.1-4.8-1.9-7.2-2.8C140,34,113.4,24.4,85.5,21c-8.5-1-17.1-1.5-25.6-0.3C24.5,43.3,1,82.9,1,128   c0,37.3,16.1,70.9,41.7,94.1c18,4.9,36.7,6.8,55.3,8.5c32.5,2.8,65.2,4.7,97.8,4.8C212.7,224.7,226.8,210.2,237.1,193.1z" fill="#6DB8E0"/><path d="M130.8,199.5c3.6,2.2,8.2,1.5,12.5,1.6c-2.7,0.3-5.4,0.6-8,0c-2.6-0.6-5.2-2.3-6.1-4.8c-0.4-1-0.4-2.1-1-3   c-1.1-1.7-3.6-1.9-5.7-1.8c-2.8,0.1-5.6,0.1-8.3,0.2c-0.9,0-1.9,0-2.6-0.6c-0.6-0.6-0.7-1.5-0.9-2.3c-0.9-3.3-4.1-5.5-7.3-6.9   s-6.7-2.2-9.3-4.4c-4.4-3.6-5.5-9.9-9.4-14.1c-2.6-2.8-6.4-4.5-8.9-7.4c-5.2-6.1-4.1-15.9-9.5-21.8c-1.8-2-4.3-3.4-5.6-5.8   c-0.9-1.7-1-3.6-1.1-5.5c-0.2-9.5,1.7-19.1,5.4-27.8c0.6-1.4,1.3-2.8,2.2-3.9c2-2.5,5.4-4.1,6.2-7.2c0.3-0.9,0.3-1.9,0.8-2.6   c0.6-0.8,1.7-1.2,2.6-1.4c8.5-2.4,17-4.8,25.4-7.2c1.6-0.4,3.2-0.9,4.8-0.9c1.4,0,2.7,0.2,4,0.5c12,2.7,23.4,8.5,32.7,16.5   c-5.5-3.5-11-7-16.5-10.6c-3.5-2.3-7.1-4.5-11-5.9c-4.5-1.6-9.4-2-14.2-2.5c-5.6-0.5-11.4-1-16.7,0.6c-3.2,1-6.2,2.6-9.1,4.3   c-3.9,2.2-7.9,4.4-11.8,6.7c-2.8,1.6-5.8,3.3-7.4,6.2c-1.3,2.5-1.3,5.5-1.5,8.3c-0.5,7.2-2.7,14.3-3.5,21.5   c-0.8,7.2-0.1,15.1,4.4,20.8c1.9,2.4,4.5,4.4,5.6,7.3c1,2.8,0.4,6.1,1.9,8.7c1.6,2.8,5.1,4.1,6.7,6.9c0.8,1.3,1.1,2.9,1.9,4.3   c1,1.7,2.7,2.9,4.4,4.1c5.5,3.7,11,7.4,16.5,11.2c1.3,0.9,2.6,1.8,4,2.5c1.5,0.8,3.2,1.4,4.8,2.2c6.8,3.1,12.8,8.2,19.9,10.3   c1.9,0.6,3.8,0.9,5.5,1.9C128.9,198,129.8,198.8,130.8,199.5z" fill="#F7F8F9"/><path d="M121.3,145.4c0.1,0.2,0.3,0.4,0.5,0.3c0.3-0.1,0.2-0.4,0.1-0.7c-0.1-0.4-0.3-0.8-0.4-1.2   c-0.3-0.7-0.5-1.4-1-2c-0.4-0.5-1-0.8-1.5-1c-0.8-0.4-1.7-0.8-2.5-1.1c-1-0.3-2.2-0.4-3.1-1c-0.1,0.6-0.3,1.2-0.8,1.6   c-0.1,0.1-0.1,0.1-0.1,0.2c-0.1,0.2,0.2,0.3,0.3,0.5c0.8,0.5,1.2,1.5,1.9,2c0.5,0.3,1,0.5,1.6,0.6c0.8,0.2,1.5,0.4,2.3,0.6   c0.2-0.2,0.1-0.6-0.1-0.8c-0.2-0.2-0.5-0.3-0.7-0.5c-0.3-0.1-0.5-0.3-0.7-0.6c0.9-0.1,1.8,0.2,2.5,0.8   C120.4,143.9,120.9,144.7,121.3,145.4z" fill="#EEC984"/><path d="M112.4,156.4c-0.5-0.4-1.2-0.9-1.8-0.6c-0.4,0.2-0.6,0.6-0.8,1c-0.2,0.4-0.4,0.8-0.3,1.2   c0.1,0.3,0.4,0.6,0.6,0.8c1.2,1.1,2.6,2.2,2.9,3.8c0.1,0.3,0.1,0.7,0.2,1s0.3,0.6,0.5,0.8c0.3,0.2,0.7,0.1,0.9-0.1   c0.6-0.2,1.2-0.7,1.8-0.4c0-0.2,0.1-0.3,0.1-0.5c0.2,0.1,0.4-0.1,0.4-0.3c0.1-0.2,0-0.4,0-0.5c-0.1-0.7-0.3-1.3-0.5-2   c-0.1-0.4-0.3-0.8-0.5-1.2c-0.2-0.3-0.5-0.5-0.8-0.7C114.3,158,113.3,157.2,112.4,156.4z" fill="#EEC984"/><path d="M70.8,181.2c0,0,11.7,12.9,32.1,13.7c20.4,0.8,22.6-1.1,22.6-1.1s-17.7-1-25.8-3.7   c-7.5-2.5-10.6-3.3-17.9-7.6C74.5,178.1,70.8,181.2,70.8,181.2z" fill="#E65336"/><polygon fill="#BF4028" points="125.5,193.8 121.5,196.6 102.4,194.9  "/><path d="M99.3,186.1c-0.5-0.4-1-0.7-1.4-1.2c-0.4-0.6-0.5-1.4-0.4-2.1c-1.4-0.6-2.9-0.8-4.4-0.8   c-0.5,1.3-1.1,2.6-1.8,3.9c-0.3,0.5-0.5,1-0.6,1.5c-0.1,0.5-0.1,1.1,0.2,1.6c0.3,0.4,0.8,0.6,1.3,0.7c0.5,0.1,1,0.1,1.5,0.1   c2.6-0.1,5.3,0.3,7.8,0.9c0.4,0.1,0.8,0.2,1.2,0.2c0.4,0,0.8-0.1,1.2,0c0.1,0.1,0.3,0.1,0.4,0.2c0.3,0.1,0.7-0.2,1-0.2   c0.1,0,0.2,0,0.3,0c0.1-0.1,0.2-0.2,0.1-0.4c-0.1-0.1-0.2-0.2-0.3-0.3c-0.9-0.6-2.1-0.6-2.9-1.4c-0.2-0.2-0.3-0.4-0.4-0.6   c-0.2-0.3-0.5-0.5-0.8-0.7C100.7,187.1,100,186.6,99.3,186.1z" fill="#EEC984"/><path d="M167.6,123.7c15.6,5,26.8,19.4,42.5,24c-2.5-4.9-7.8-7.7-12.5-10.6c-4.7-2.9-9.6-6.8-10.3-12.3   c4,1.4,8,2.7,12.1,4.1c1.1-5.2-3.8-9.4-8.2-12.4c0.8-1.9,3.5-1.9,5.2-3c3.2-2.1,2.2-7.3-0.4-10.1c-2.6-2.9-6.3-4.8-8.1-8.2   c2-0.5,3.4-2.6,3.4-4.6c0-2.1-1.1-4-2.6-5.4c-3-2.7-7.7-4.2-8.6-8.1c-0.3-1.3-0.2-2.6-0.3-3.9c-0.8-6.4-8.2-9.2-13.5-12.9   c-2.6-1.8-4.8-4-7.1-6.2c-12.6-11.8-27.7-21-43.9-26.9c3.4-1.6,6.9,1.8,9.9,4.1c5.3,3.9,12.1,4.8,18.4,6.4c7.5,2,14.7,5.2,21.1,9.5   c4.5-0.3,8.9,2,12.4,4.8c3.5,2.9,6.5,6.3,10.2,9c5.3,3.9,12.4,6.4,15,12.4c-0.4-0.6-1.5-0.2-1.7,0.5c-0.2,0.7,0.1,1.5,0.4,2.1   c3.3,5.7,10.8,8,13.7,14c2.1,4.4,1.1,10,3.7,14.2c2.4,3.8,7.4,5.9,8.4,10.3c0.7,3.2-0.9,6.4-0.8,9.6c0.3,6,6.7,10.4,7.1,16.4   c-2.7,0.7-6,1.9-6.5,4.7c-0.2,1.2,0.2,2.5,0.6,3.6c1.2,3.5,2.3,6.9,3.5,10.4c-3.6,0.4-7.3,0.6-10.9,0.4c-0.1,1.1-1.3,1.7-2.4,1.9   c-4.6,0.9-9.2-1.7-12.4-5c-3.3-3.3-5.7-7.4-9.2-10.6c-2.9-2.7-6.5-4.6-9.8-6.8C179.2,134.7,173.3,129.2,167.6,123.7z" fill="#F7F8F9"/><path d="M125,197.8c-3.9,0.1-7.8,0.2-11.7,0.3c-4.3,0.1-8.6,0.2-12.8-0.5c-4.9-0.8-9.6-2.6-14.3-4.4   c-9.7-3.9-19.2-8.1-28.6-12.6c-4.5-2.2-9.1-4.5-12-8.5c4.5,2.5,9,5,13.4,7.6c1.9,1.1,3.8,2.1,5.7,3.1c13.8,7.2,29.2,11.4,44.8,12.1   c4.3,0.2,8.6,0.1,12.9,0.3c0.8,0,1.6,0.1,2.2,0.6C125.3,196.3,125.6,197.3,125,197.8z" fill="#FFFFFF"/><path d="M80.5,182.6c-0.7-0.4-1.4-0.7-2.1-1.1c0-0.1,0.1-0.1,0.2-0.2c0-0.1,0-0.2,0-0.2c0.4,0,0.8-0.2,1.1-0.4   c-0.8-0.3-1.5-0.6-2.3-0.9c-0.4-0.2-0.9-0.3-1.3-0.4c-0.3-0.1-0.5-0.1-0.8-0.1c-0.2,0-0.4,0.1-0.5,0.1c-0.8,0.3-1.7,0.6-2.5,0.9   c-0.1,0.2,0,0.4,0.2,0.5c0.2,0.1,0.4,0,0.7,0.1c0.9,0,1.5,0.7,2.3,1.1c0.7,0.3,1.6,0.3,2.3,0.7c0.4,0.2,0.7,0.4,1.1,0.5   c0.4,0.1,0.7,0.1,1.1,0.1c0.3,0.1,0.7,0.2,1,0.3c0.6,0.2,1.3,0.3,2,0.3c0-0.3-0.3-0.4-0.6-0.5c-0.4-0.1-0.7-0.3-1-0.5   C81,182.9,80.8,182.7,80.5,182.6z" fill="#EEC984"/><path d="M103.8,137.7c2.9,1.6,6,2.8,9.2,3.4c0.2-0.7,0.5-1.5,0.7-2.2c-2.1-0.9-4.3-1.8-5.9-3.4   c-1.3-1.4-2.1-3.2-3.2-4.7c-1.1-1.5-3.2-3.3-5-2.7c-0.5,0.2-1.1,0.3-1.6,0.5c-1.2,0.4-2.5,0.8-3.6,1.4c-2.6,1.3-4.5,3.5-6.5,5.7   c-1.4,1.5-2.7,3-4.1,4.6c-1.7,1.9-3.4,3.8-5,5.9c-1.6,2.2-2.9,4.6-3.4,7.3c-0.5,2.7,0,5.6,1.8,7.6c1.4,1.6,3.4,2.5,5,4   c1.2,1.1,2.1,2.5,3.3,3.6c1.4,1.2,3.2,1.9,4.4,3.3c-1.9,0.4-3.7,1.1-5.4,2.1c-1.8,1.1-3.5,2.7-5.5,3.5c-1.4,0.6-3.1,0.8-4.2,1.8   c1.2,0.4,2.4,0.9,3.7,1.3c0.5,0.2,1,0.4,1.6,0.4c0.4,0,0.9-0.1,1.3-0.2c4.5-1,9-2.3,13.4-3.8c-0.8,1.8-1.6,3.6-2.2,5.4   c1.5,0.2,2.9,0.4,4.4,0.5c0.2,0,0.4,0,0.6,0c0.4-0.2,0.5-0.7,0.6-1.2c0.6-3.8,3.2-6.9,5.1-10.2c1-1.8,1.8-3.6,2.6-5.5   c0.7-1.5,1.3-3.3,0.6-4.8c-5.5-3-11.2-6-17.1-8.2c0.5-0.5,1.3-0.6,2-0.8c1.7-0.5,3.2-1.7,4-3.2c0.8,0.7,1.5,1.4,2.3,2.1   c3.6,2.9,7.9,4.8,12.1,6.6c0.3-0.9,0.8-1.7,1.3-2.4c-2.6-0.9-5-2.4-6.8-4.5c-1.8-2.1-3-4.7-3.1-7.5c0-0.9,0-1.7,0.3-2.5   C101.9,139.6,102.9,138.6,103.8,137.7z M97.7,164.7c0.6,0.1,1.3,0.4,1.4,1c0.1,0.4-0.2,0.8-0.5,1.2c-0.7,1-1.2,2.2-1.6,3.4   c-0.5-1-1-2-1.2-3.1c-0.1-0.4-0.2-0.8-0.3-1.2c-0.3-0.7-0.8-1.2-1.3-1.8C95.4,164.3,96.6,164.4,97.7,164.7z" fill="#2C424F"/><path d="M105,120.3c0.8,0.1,1.5,0.5,2.2,0.9c0.3,0.2,0.7,0.4,0.9,0.7c0.4,0.4,0.6,1,1,1.4c0.2,0.2,0.4,0.3,0.6,0.5   c0.5,0.5,0.6,1.3,0.6,2c0,0.5,0,1-0.1,1.5c-0.2,0.7-0.6,1.4-1,2c-0.7,1-1.3,2.1-2,3.1c-0.3,0.5-0.6,1-1.1,1.3   c-0.7,0.5-1.7,0.4-2.4-0.2c-0.3-0.3-0.5-0.6-0.8-1c-0.7-0.8-1.7-1.5-2.2-2.4c-0.4-0.8-0.5-1.7-0.5-2.5c0.1-0.9,0.3-1.7,0.6-2.6   c0.2-0.5,0.3-1,0.5-1.5c0.3-0.9,0.6-1.9,1.3-2.6C103.2,120.5,104.1,120.2,105,120.3z" fill="#EEC984"/><path d="M110.9,124.6c0,0.4-0.1,0.8,0.1,1.2c0.1,0.4,0.4,0.7,0.8,0.7c-0.6,0-1.1,0.5-1.4,1   c-0.3,0.5-0.5,1.1-0.9,1.6c-0.1-1.3,0-2.7,0.1-4c-2.3-0.4-4.5-1.7-5.9-3.6c-0.4,0.6-0.7,1.2-0.9,1.9c-0.1,0.3-0.1,0.7-0.1,1   c-0.2,1.1-1.1,2.1-0.8,3.1c-0.2-0.4-0.5-0.7-0.9-0.9c0.1,0.4,0,0.7-0.2,1c-0.1,0.1-0.2,0.3-0.2,0.4c0,0.3,0.5,0.6,0.3,0.8   c-0.7,0.2-1.5,0.2-2.2,0c0.5-0.4,0.7-1.2,0.4-1.9c0.3,0,0.5,0,0.8-0.2c0.2-0.1,0.4-0.4,0.2-0.7c-0.1-0.2-0.3-0.2-0.4-0.4   c-0.3-0.3-0.2-0.9-0.1-1.3c0.3-1.2,0.7-2.4,1.4-3.4c1-1.4,2.6-2.3,4.3-2.4c0.6,0,1.2,0,1.6,0.4c0.3,0.2,0.5,0.6,0.8,0.7   c0.3,0.1,0.7,0.1,1,0.2c0.3,0.1,0.5,0.3,0.6,0.5C110.4,121.5,111,123.1,110.9,124.6z" fill="#111410"/><path d="M161.1,63.5c-10.7-8.2-17.4-22-30.3-26c17.7,10.1,34.6,21.6,50.4,34.5c1.8,1.5,3.7,3.2,3.7,5.5   c0,1.2-0.5,2.4-0.2,3.5c0.4,1.6,2.1,2.4,3.4,3.5c6.6,5.3,3.3,17.2,9.4,23.2c0.8,0.8,1.9,1.6,2.1,2.7c0.4,2.5-3.5,4.3-3,6.7   c0.2,0.8,0.8,1.4,1.4,2c3.8,3.8,6.5,10.6,2.4,14.2c1.5,6.6,12.1,9,11.7,15.7c-3,1.4-6.4-0.5-9.2-2.4c-12.9-8.7-25.7-17.4-38.6-26.1   c-1.9-1.3-3.8-4.2-1.8-5.4c5.1,3.9,11.4,6.3,17.8,6.7c1.1-3.2,0.5-7-1.6-9.6c1.4-0.5,2.8-0.9,4.2-1.4c1.2-2.7-2.1-5.1-3.5-7.7   c-2.6-4.9,1.8-11.1-0.1-16.3c-1.9-5.2-9.3-7.1-10.8-12.4c-0.3-1.2-0.3-2.5-0.6-3.7C167.1,67.6,163.8,65.6,161.1,63.5z" fill="#2DA5D5"/><path d="M159.8,47.3c-8.7-4.2-17.4-8.2-26.1-12.4c-4-2-8.1-4-12.3-5.5c-5.8-2.1-11.8-3.2-17.8-4.2   c-10.9-2-21.9-3.9-32.8-5.9c11.7-1.3,23.6-0.9,35.2,1.1c10.1,1.8,20,4.8,29.7,8.1c21.1,7,42.4,15.3,58.4,30.7   c5.8,5.6,11,12.4,12.2,20.3c-5.6,0.2-9.6-5.1-13.2-9.3C184.2,59.9,172,53.3,159.8,47.3z" fill="#F7F8F9"/></g></svg>